<svg xmlns="http://www.w3.org/2000/svg" xmlns:xlink="http://www.w3.org/1999/xlink" width="500" zoomAndPan="magnify" viewBox="0 0 375 374.999991" height="500" preserveAspectRatio="xMidYMid meet" version="1.0"><defs><clipPath id="4555cf136d"><path d="M 3 15.683594 L 375 15.683594 L 375 359.183594 L 3 359.183594 Z M 3 15.683594 " clip-rule="nonzero"/></clipPath></defs><g clip-path="url(#4555cf136d)"><path fill="#e4a5b7" d="M 265.59375 134.453125 C 274.527344 132.480469 284.816406 128.046875 290.101562 120.234375 C 297.785156 108.828125 295.4375 91.988281 292.09375 79.578125 C 292.09375 79.578125 275.945312 15.664062 241.765625 15.832031 C 213.082031 15.976562 182.335938 77.941406 173.1875 97.867188 C 172.574219 97.773438 171.941406 97.71875 171.285156 97.714844 C 167.644531 97.6875 164.238281 99.386719 161.183594 101.203125 C 157.003906 103.699219 153.054688 107.878906 148.027344 108.347656 C 143.953125 108.726562 140.050781 107.210938 135.964844 108.042969 C 132.957031 108.652344 130.574219 110.785156 129.386719 113.5 C 118.859375 110.449219 109.535156 104.152344 99.433594 100.050781 C 88.394531 95.570312 76.589844 92.730469 65.03125 90.003906 C 53.847656 87.375 41.945312 83.804688 30.414062 83.515625 C 19.742188 83.25 11.988281 89.945312 7.710938 99.257812 C -0.015625 116.085938 5.425781 134.53125 8.886719 151.671875 C 13.910156 176.523438 28.929688 201.9375 52.355469 213.453125 C 59.644531 217.035156 67.183594 217.609375 74.632812 215.261719 C 41.878906 283.957031 52.652344 352.132812 52.652344 352.132812 L 90.519531 317.777344 L 140.667969 359.269531 C 140.667969 359.269531 115.605469 293.988281 131.730469 213.257812 C 133.957031 203.179688 136.382812 193.925781 138.699219 185.886719 C 139.652344 182.835938 140.5 179.988281 141.253906 177.335938 C 143.242188 170.914062 145.042969 165.617188 146.410156 161.761719 C 146.796875 162.167969 147.203125 162.558594 147.644531 162.914062 C 159.777344 172.757812 172.632812 155.320312 184.894531 155.796875 C 190.699219 156.023438 194.503906 153.03125 196.476562 148.683594 C 241.730469 179.160156 327.210938 270.867188 327.210938 270.867188 L 327.972656 219.683594 L 374.980469 207.613281 C 374.980469 207.613281 321.71875 159.464844 263.140625 134.949219 C 263.960938 134.789062 264.777344 134.636719 265.59375 134.453125 Z M 265.59375 134.453125 " fill-opacity="1" fill-rule="nonzero"/></g><path fill="#b07a8a" d="M 130.113281 113.46875 C 132.484375 123.726562 131.992188 135.164062 137.101562 144.679688 C 139.464844 149.085938 141.042969 153.648438 144.03125 157.722656 C 144.824219 158.808594 147.046875 160.566406 145.824219 162.03125 C 145.320312 162.628906 144.457031 162.292969 144.207031 161.660156 C 143.902344 160.882812 142.496094 159.824219 141.953125 159.023438 C 141.363281 158.160156 140.679688 157.332031 140.035156 156.476562 C 139.914062 156.578125 139.761719 156.664062 139.566406 156.738281 C 134.722656 161.9375 130.4375 167.609375 125.601562 172.824219 C 120.367188 178.472656 114.832031 183.871094 109.203125 189.125 C 103.847656 194.125 98.371094 198.949219 92.640625 203.511719 C 87.132812 207.898438 81.203125 213.105469 74.617188 215.757812 C 74.324219 215.875 74.054688 215.4375 74.285156 215.222656 C 79.914062 210.007812 86.855469 206.199219 92.652344 201.113281 C 98.476562 196.007812 104.203125 190.84375 109.734375 185.425781 C 115.230469 180.042969 120.808594 174.699219 125.785156 168.820312 C 129.992188 163.851562 133.265625 157.945312 138.367188 153.792969 C 137.09375 151.222656 135.703125 148.597656 134.496094 145.917969 C 134.253906 146.003906 133.988281 146.035156 133.714844 145.980469 C 133.570312 145.953125 133.421875 145.921875 133.277344 145.894531 C 132.882812 145.988281 132.488281 146.078125 132.125 146.207031 C 129.746094 147.046875 127.453125 148.070312 125.246094 149.289062 C 121.660156 151.265625 118.230469 153.480469 114.714844 155.574219 C 106.457031 160.492188 98.328125 165.457031 90.410156 170.921875 C 82.53125 176.359375 74.492188 181.777344 67.660156 188.539062 C 62.847656 193.300781 57.023438 199.347656 53.925781 205.417969 C 53.378906 206.488281 52.917969 207.597656 52.546875 208.742188 C 52.40625 210 52.292969 211.261719 52.199219 212.527344 C 52.402344 212.453125 52.609375 212.566406 52.726562 212.726562 C 52.773438 212.789062 52.820312 212.851562 52.867188 212.917969 C 53.15625 213.308594 52.585938 213.796875 52.230469 213.515625 C 51.988281 213.574219 51.742188 213.46875 51.652344 213.207031 C 48.945312 205.292969 56.710938 197.3125 61.59375 192.140625 C 68.269531 185.070312 75.316406 178.582031 83.234375 172.910156 C 92.289062 166.421875 101.5 160.277344 111.0625 154.558594 C 115.300781 152.023438 119.355469 149.171875 123.671875 146.78125 C 126.710938 145.101562 130.148438 144.226562 133.164062 142.691406 C 132.894531 141.972656 132.644531 141.25 132.421875 140.523438 C 130.988281 135.765625 130.144531 130.875 129.550781 125.945312 C 129.046875 121.75 129.289062 117.800781 129.199219 113.621094 C 129.1875 113.101562 129.992188 112.941406 130.113281 113.46875 Z M 288.449219 107.878906 C 285.652344 105.589844 281.9375 103.285156 278.636719 101.855469 C 274.816406 100.203125 270.167969 100.0625 266.070312 99.703125 C 261.027344 99.261719 256.21875 98.882812 251.195312 99.769531 C 240.527344 101.652344 230.214844 104.828125 219.933594 108.191406 C 214.484375 109.976562 208.988281 111.652344 203.574219 113.546875 C 200.996094 114.453125 198.5 115.59375 196.015625 116.726562 C 194.597656 117.371094 193.21875 118.097656 191.84375 118.820312 C 191.414062 119.117188 190.984375 119.414062 190.558594 119.710938 C 190.554688 119.710938 190.554688 119.710938 190.554688 119.714844 C 188.046875 114.355469 185.121094 109.226562 181.433594 104.582031 C 179.414062 102.039062 176.757812 98.785156 173.753906 97.289062 C 173.21875 97.019531 172.835938 97.789062 173.328125 98.105469 C 175.945312 99.796875 177.957031 103.175781 179.765625 105.628906 C 182.722656 109.644531 185.0625 114.4375 187.300781 118.882812 C 191.601562 127.425781 196.804688 138.132812 195.894531 147.957031 C 195.78125 149.199219 197.5625 149.339844 198.0625 148.441406 C 198.0625 148.445312 198.066406 148.449219 198.066406 148.453125 C 198.070312 148.441406 198.074219 148.425781 198.082031 148.414062 C 198.117188 148.339844 198.148438 148.257812 198.164062 148.171875 C 199.210938 145.269531 198.402344 141.519531 197.628906 138.277344 C 200.648438 139.84375 204.710938 139.933594 207.875 140.160156 C 214.3125 140.617188 220.871094 140.484375 227.308594 140.230469 C 234.425781 139.949219 241.484375 139.191406 248.574219 138.609375 C 251.375 138.375 254.574219 138.335938 257.304688 137.675781 C 258.933594 137.28125 261.269531 135.886719 262.941406 136.113281 C 264.089844 136.269531 264.492188 134.496094 263.34375 134.355469 C 262.394531 134.238281 261.511719 134.550781 260.605469 134.824219 C 257.964844 135.609375 255.515625 135.972656 252.761719 136.261719 C 245.820312 137 238.785156 137.253906 231.816406 137.683594 C 225.550781 138.070312 219.300781 138.105469 213.03125 138.007812 C 209.632812 137.957031 206.234375 137.816406 202.859375 137.390625 C 200.96875 137.152344 199.089844 136.660156 197.195312 136.441406 C 197.160156 136.289062 197.125 136.136719 197.09375 135.988281 C 196.019531 131.09375 193.574219 126.144531 191.414062 121.542969 C 195.265625 120.019531 198.953125 118.125 202.875 116.734375 C 207.324219 115.160156 211.902344 113.945312 216.410156 112.546875 C 225.671875 109.675781 234.828125 106.554688 244.304688 104.4375 C 248.515625 103.496094 252.734375 102.59375 257.050781 102.34375 C 261.207031 102.105469 265.652344 102.824219 269.78125 103.28125 C 273.414062 103.683594 277.058594 104.476562 280.53125 105.605469 C 284.078125 106.761719 290.84375 110.582031 291.152344 114.816406 C 291.246094 116.140625 293.324219 116.070312 293.207031 114.753906 C 292.957031 111.839844 290.582031 109.621094 288.449219 107.878906 Z M 288.449219 107.878906 " fill-opacity="1" fill-rule="nonzero"/></svg>